<svg aria-hidden="true" style="position:absolute;width:0;height:0;overflow:hidden" xmlns="http://www.w3.org/2000/svg">
  <defs>
    <symbol id="icon-logo-footer" viewBox="0 0 22 32">
      <path d="M9.204-.005a.83.83 0 0 1-.096.032c-.465 2.839-.918 5.68-1.361 8.523l.021.09c1.779.002 3.559 0 5.339-.005a.07.07 0 0 0 .053-.032.265.265 0 0 0 .005-.122c-.442-2.808-.889-5.616-1.34-8.422a.091.091 0 0 0-.069-.064H9.204zm.319.425c.624-.002 1.248 0 1.872.005.021.003.04.008.058.016.024.106.045.212.064.319.176 1.121.355 2.241.537 3.36a.284.284 0 0 1-.128.037l-.861.011a.649.649 0 0 0 0 .404c.333.013.666.02 1 .021.024.001.043.01.059.027.198 1.189.385 2.378.558 3.568a.48.48 0 0 1-.074.021c-1.439.007-2.878.007-4.318 0a.122.122 0 0 1-.037-.016.324.324 0 0 0-.016-.053c.188-1.166.374-2.332.558-3.499a.147.147 0 0 1 .069-.048l1.702-.011.117-.011a.226.226 0 0 0 .016-.058c.01-.107.006-.213-.011-.319a.372.372 0 0 0-.048-.027l-1.67-.011a.088.088 0 0 1-.08-.048c.179-1.181.364-2.361.553-3.541A.534.534 0 0 1 9.475.45a.286.286 0 0 0 .048-.032zM.973 14.479a.156.156 0 0 0-.037.117c.111.122.227.241.346.356 3.023 2.63 6.039 5.267 9.05 7.912a.269.269 0 0 0 .117.058c3.075-2.679 6.148-5.361 9.22-8.045.091-.084.174-.174.25-.271.023-.047.016-.09-.021-.128a1629.661 1629.661 0 0 1-5.004-4.844.382.382 0 0 0-.128-.085 887.624 887.624 0 0 0-8.635-.011.214.214 0 0 0-.085.032c-.126.117-.25.236-.372.356a.168.168 0 0 1-.085.085c-.085.078-.167.16-.245.245a.17.17 0 0 1-.074.064l-.266.255a.128.128 0 0 1-.074.074l-.255.245a.168.168 0 0 1-.085.085l-.245.234a.128.128 0 0 1-.074.074 4.38 4.38 0 0 0-.255.255.21.21 0 0 1-.085.074l-.255.245a.128.128 0 0 1-.074.074l-.255.245a.168.168 0 0 1-.085.085c-.085.078-.167.16-.245.245a.164.164 0 0 1-.074.064l-.266.255a.128.128 0 0 1-.074.074l-.255.245a.168.168 0 0 1-.085.085l-.245.234a.128.128 0 0 1-.074.074l-.255.245a.128.128 0 0 1-.074.074l-.266.255a.128.128 0 0 1-.074.074l-.234.223a.098.098 0 0 1-.064.064zm5.349-4.52c.326-.002.652 0 .978.005.061.006.077.036.048.09a517.117 517.117 0 0 1-4.105 5.562c-.07.095-.145.187-.223.277L1.515 14.58l.117-.138 4.583-4.434a.827.827 0 0 1 .106-.048zm1.904 0c.617-.002 1.234 0 1.85.005l.138.016c.023 1.237.025 2.474.005 3.711-.012.052-.034.056-.064.011a375.612 375.612 0 0 1-1.994-3.695.324.324 0 0 1 .064-.048zm2.563 0c.588-.002 1.177 0 1.765.005l.064.011.021.043a1499.66 1499.66 0 0 1-1.888 3.504.314.314 0 0 1-.096.096 296.859 296.859 0 0 1 0-3.531l.016-.106a.448.448 0 0 0 .117-.021zm2.839 0c.301-.002.603 0 .904.005a.32.32 0 0 1 .17.085 1268.4 1268.4 0 0 0 4.413 4.275c.077.073.149.149.218.229a.05.05 0 0 1-.011.043l-1.409 1.239c-.052.028-.093.015-.122-.037l-4.233-5.764c-.005-.021-.007-.042-.005-.064a.13.13 0 0 0 .074-.011zm-.553.202a.417.417 0 0 1 .069.043c1.426 1.941 2.855 3.88 4.286 5.817a.68.68 0 0 1 .08.138c-.13.131-.264.257-.404.378a507.51 507.51 0 0 1-2.935 2.563 7.78 7.78 0 0 1-.436.356 1.204 1.204 0 0 1-.154-.213c-.967-1.554-1.936-3.107-2.909-4.658.78-1.488 1.581-2.963 2.403-4.424zm-5.328.074a.935.935 0 0 1 .08.074l2.265 4.169c.08.127.126.265.138.415.007 2.339.007 4.679 0 7.019-.002.07-.007.139-.016.207a.1.1 0 0 1-.064 0l-6.657-5.806a.55.55 0 0 1-.117-.138c1.461-1.977 2.918-3.957 4.371-5.939zm2.925 5.222a.221.221 0 0 1 .101.106l2.621 4.195a137.98 137.98 0 0 1-2.637 2.329c-.063.045-.097.029-.101-.048-.007-2.169-.007-4.339 0-6.508l.016-.074z"/>
      <path d="M5.673 9.927a.168.168 0 0 1-.085.085.488.488 0 0 1 .085-.085zM5.344 10.257a.17.17 0 0 1-.074.064.17.17 0 0 1 .074-.064zM5.004 10.576a.128.128 0 0 1-.074.074.37.37 0 0 1 .074-.074zM4.674 10.895a.168.168 0 0 1-.085.085.488.488 0 0 1 .085-.085zM4.344 11.214a.128.128 0 0 1-.074.074.37.37 0 0 1 .074-.074zM4.015 11.543a.21.21 0 0 1-.085.074.21.21 0 0 1 .085-.074zM3.674 11.863a.128.128 0 0 1-.074.074.37.37 0 0 1 .074-.074zM3.345 12.182a.168.168 0 0 1-.085.085.488.488 0 0 1 .085-.085zM3.015 12.511a.164.164 0 0 1-.074.064.164.164 0 0 1 .074-.064zM2.675 12.83a.128.128 0 0 1-.074.074.37.37 0 0 1 .074-.074zM2.345 13.149a.168.168 0 0 1-.085.085.488.488 0 0 1 .085-.085zM2.015 13.468a.128.128 0 0 1-.074.074.37.37 0 0 1 .074-.074zM1.686 13.787a.128.128 0 0 1-.074.074.37.37 0 0 1 .074-.074zM1.345 14.117a.128.128 0 0 1-.074.074.37.37 0 0 1 .074-.074zM1.037 14.415a.098.098 0 0 1-.064.064.278.278 0 0 1 .064-.064zM-.005 23.908c.358-.004.716 0 1.074.011.609 1.441 1.22 2.881 1.834 4.319.607-1.44 1.215-2.88 1.824-4.319.354-.011.709-.014 1.064-.011v5.659h-.744c.002-1.571 0-3.142-.005-4.712-.658 1.568-1.319 3.136-1.983 4.702a1.51 1.51 0 0 1-.308.005c-.67-1.575-1.338-3.151-2.005-4.728-.005 1.578-.007 3.156-.005 4.734h-.744v-5.659zM13.267 23.919a132.82 132.82 0 0 0-.005 2.893.046.046 0 0 0 .016-.021c.863-.957 1.725-1.916 2.584-2.877.312-.009.624-.007.936.005l-2.446 2.67c.886.984 1.774 1.966 2.664 2.947.007.01.006.017-.005.021l-.936-.021c-.741-.835-1.48-1.672-2.217-2.51-.197.208-.39.419-.58.633-.252.005-.503.007-.755.005v-3.755c.25-.003.498 0 .744.011zM17.722 23.908h3.882v.638h-3.137v1.202h-.744v-1.84z"/>
      <path d="M13.267 23.919c-.004.959 0 1.916.011 2.872a.046.046 0 0 1-.016.021 132.81 132.81 0 0 1 .005-2.893zM8.694 23.962c.312-.004.624 0 .936.011.439 1.038.878 2.075 1.319 3.111-.266.009-.532.007-.798-.005-.332-.794-.664-1.588-.994-2.383L7.918 27.69c1.099.002 2.198.007 3.297.016.265.619.528 1.24.787 1.862a11.5 11.5 0 0 1-.851.005c-.177-.412-.35-.825-.521-1.239-.978-.012-1.957-.014-2.935-.005-.181.414-.355.83-.521 1.25-.287.004-.574 0-.861-.011.798-1.867 1.592-3.736 2.382-5.606zM17.722 26.355h3.818v.638h-3.818v-.638zM17.722 27.599h.744v1.33h3.137v.638h-3.882v-1.968zM12.522 28.27h.744v1.298h-.744V28.27zM16.074 29.535l.936.021c-.308.002-.617 0-.925-.005a.026.026 0 0 1-.011-.016zM.122 30.227a.096.096 0 0 1 .08.021l.989 1.372c.005-.464.007-.929.005-1.393h.064v1.532a.079.079 0 0 1-.069-.021l-1-1.383a93.87 93.87 0 0 0-.005 1.404H.122v-1.532zM2.058 30.227c-.212.506-.424 1.011-.638 1.516a.116.116 0 0 0 .08-.005c.074-.172.144-.346.207-.521.248-.002.496 0 .744.005.075.171.147.343.218.516a.106.106 0 0 0 .08.005 86.369 86.369 0 0 1-.627-1.516h-.064zm.021.106c.122.269.235.542.34.819-.227.002-.454 0-.681-.005.118-.269.231-.541.34-.814zM2.909 30.227h.064v1.532h-.064v-1.532zM3.132 30.227h.064v1.468h.713v.064h-.776v-1.532zM4.408 30.227a1.79 1.79 0 0 1 .319.016.35.35 0 0 1 .213.16.153.153 0 0 1-.043.037.383.383 0 0 0-.223-.144.963.963 0 0 0-.33.021c-.177.089-.239.229-.186.42.047.1.123.165.229.197.092.012.184.02.276.021.22.046.337.181.351.404a.394.394 0 0 1-.298.383.925.925 0 0 1-.34 0 .338.338 0 0 1-.202-.138.055.055 0 0 1 .043-.037.475.475 0 0 0 .479.112c.219-.078.295-.229.229-.452a.366.366 0 0 0-.261-.207l-.245-.011c-.258-.06-.37-.222-.335-.484a.422.422 0 0 1 .324-.298zM7.439 30.227v1.532c.209.002.418 0 .627-.005a.454.454 0 0 0 .292-.165c.148-.278.082-.491-.197-.638a.384.384 0 0 0 .186-.245c.037-.247-.064-.404-.303-.473a17.49 17.49 0 0 0-.606-.005zm.064.064c.17-.002.34 0 .51.005.174.035.269.142.287.319a.338.338 0 0 1-.266.308c-.177.005-.354.007-.532.005v-.638zm0 .702c.184-.002.369 0 .553.005.19.039.296.154.319.346a.373.373 0 0 1-.308.346c-.188.005-.376.007-.564.005v-.702zM8.598 30.227h.904v.064h-.84v.66H9.3v.064h-.638v.681h.84v.064h-.904v-1.532zM10.257 30.227c-.212.506-.421 1.013-.627 1.521a.126.126 0 0 0 .069-.011c.071-.173.144-.345.218-.516a8.79 8.79 0 0 1 .744.005l.213.511a.091.091 0 0 0 .074.005c-.205-.49-.409-.981-.611-1.473-.014-.035-.041-.049-.08-.043zm.021.106c.118.27.235.541.351.814-.227.005-.454.007-.681.005.108-.274.218-.547.33-.819zM11.065 30.227h.074c-.005.38 0 .759.016 1.138a.506.506 0 0 0 .473.33.494.494 0 0 0 .484-.383c.005-.362.007-.723.005-1.085h.064c.002.369 0 .738-.005 1.106-.081.27-.264.412-.548.425a.553.553 0 0 1-.526-.34.581.581 0 0 1-.032-.17c-.005-.34-.007-.681-.005-1.021zM12.299 30.227h1.053v.064h-.489v1.468h-.064v-1.468h-.5v-.064zM13.479 30.227a.168.168 0 0 1 .08.011c.15.232.302.463.457.691l.447-.681c.027-.023.057-.026.09-.011-.166.257-.335.512-.505.766-.005.248-.007.496-.005.745h-.064c.002-.252 0-.504-.005-.755a41.584 41.584 0 0 1-.495-.766zM15.702 30.227c.111-.006.221.003.33.027.076.034.14.084.191.149a.11.11 0 0 1-.053.037.403.403 0 0 0-.191-.133 1.027 1.027 0 0 0-.277-.011c-.245.065-.332.219-.261.463a.38.38 0 0 0 .261.186.679.679 0 0 1 .436.096c.155.142.192.31.112.505a.422.422 0 0 1-.303.207 1.222 1.222 0 0 1-.308-.011.375.375 0 0 1-.191-.138.153.153 0 0 1 .043-.037.36.36 0 0 0 .213.122c.145.026.28.001.404-.074.137-.141.153-.295.048-.463a.398.398 0 0 0-.229-.133l-.245-.011c-.242-.065-.35-.223-.324-.473a.407.407 0 0 1 .346-.308zM16.34 30.227h1.053v.064h-.489v1.468h-.064v-1.468h-.5v-.064zM17.52 30.227h.064c-.002.365 0 .73.005 1.096a.501.501 0 0 0 .484.372.503.503 0 0 0 .484-.372c.005-.365.007-.73.005-1.096h.074c.002.34 0 .681-.005 1.021a.522.522 0 0 1-.388.484c-.303.072-.531-.026-.686-.293a.993.993 0 0 1-.032-.106c-.005-.369-.007-.738-.005-1.106zM18.797 30.227v1.532c.195.002.39 0 .585-.005.18-.02.327-.1.441-.239a.881.881 0 0 0 .085-.915.66.66 0 0 0-.494-.367c-.206-.005-.411-.007-.617-.005zm.063.064c.181-.002.362 0 .542.005a.665.665 0 0 1 .505.495c.075.349-.029.627-.314.835a.546.546 0 0 1-.191.064 14.01 14.01 0 0 1-.542.005v-1.404zM20.158 30.227h.064v1.532h-.064v-1.532zM21.913 30.908a1.004 1.004 0 0 0-.112-.319c-.241-.335-.558-.436-.952-.303-.354.177-.504.462-.452.856.102.385.352.591.75.617.426-.036.681-.263.766-.681v-.17zm-.798-.617c.439.031.683.265.734.702-.046.422-.28.656-.702.702-.422-.046-.656-.28-.702-.702.043-.408.266-.642.67-.702zM6.269 31.78a.452.452 0 0 0 .324-.191c.054.051.109.101.165.149a.509.509 0 0 0 .064-.059 2.175 2.175 0 0 0-.181-.191.829.829 0 0 0 .085-.346H6.63a.767.767 0 0 1-.059.287 13.908 13.908 0 0 0-.324-.319.68.68 0 0 0 .197-.181c.049-.201-.031-.315-.239-.34-.19.011-.273.11-.25.298a.595.595 0 0 0 .144.207.65.65 0 0 0-.197.197c-.077.264.016.427.282.489h.085zm-.128-1.096c.176-.021.245.054.207.223a.525.525 0 0 1-.165.138 1.972 1.972 0 0 1-.112-.128c-.049-.101-.026-.179.069-.234zm.011.468c.124.117.244.237.362.362-.113.172-.262.213-.447.122-.122-.111-.135-.234-.037-.367.04-.041.08-.08.122-.117z"/>
    </symbol>
    <symbol id="icon-logo-header" viewBox="0 0 116 32">
      <path d="M13.438-.007a1.146 1.146 0 0 1-.14.044c-.678 3.942-1.341 7.887-1.987 11.836.012.042.022.084.031.126 2.598.002 5.196 0 7.794-.007a.11.11 0 0 0 .078-.044.35.35 0 0 0 .008-.17c-.645-3.9-1.298-7.798-1.956-11.695a.131.131 0 0 0-.101-.089h-3.726zm.466.59c.911-.002 1.822 0 2.733.007.03.004.058.011.085.022.035.147.066.295.093.443.256 1.556.518 3.112.784 4.666a.439.439 0 0 1-.186.052l-1.258.015a.87.87 0 0 0 0 .561c.486.018.973.028 1.459.03a.122.122 0 0 1 .085.037c.29 1.651.561 3.302.815 4.954a1.034 1.034 0 0 1-.109.03c-2.101.01-4.203.01-6.304 0a.186.186 0 0 1-.054-.022.396.396 0 0 0-.023-.074c.275-1.619.547-3.238.815-4.858a.218.218 0 0 1 .101-.066l2.484-.015.171-.015a.288.288 0 0 0 .023-.081 1.729 1.729 0 0 0-.015-.443.516.516 0 0 0-.07-.037l-2.438-.015a.133.133 0 0 1-.117-.066c.262-1.639.531-3.279.807-4.917a.7.7 0 0 1 .047-.162.439.439 0 0 0 .07-.044zM1.421 20.105a.204.204 0 0 0-.054.162c.163.169.331.334.505.495a3643.47 3643.47 0 0 1 13.213 10.987.41.41 0 0 0 .171.081c4.489-3.721 8.976-7.444 13.461-11.171.133-.117.255-.242.365-.377.034-.065.024-.125-.031-.177-2.44-2.237-4.875-4.479-7.305-6.726a.583.583 0 0 0-.186-.118c-4.202-.025-8.404-.03-12.607-.015a.335.335 0 0 0-.124.044c-.184.163-.365.328-.543.495a.235.235 0 0 1-.124.118 5.733 5.733 0 0 0-.357.34.239.239 0 0 1-.109.089l-.388.354a.182.182 0 0 1-.109.103l-.373.34a.235.235 0 0 1-.124.118l-.357.325a.182.182 0 0 1-.109.103 6.238 6.238 0 0 0-.373.354.31.31 0 0 1-.124.103l-.373.34a.182.182 0 0 1-.109.103l-.373.34a.238.238 0 0 1-.124.118 5.454 5.454 0 0 0-.357.34.233.233 0 0 1-.109.089l-.388.354a.182.182 0 0 1-.109.103l-.373.34a.238.238 0 0 1-.124.118l-.357.325a.182.182 0 0 1-.109.103l-.373.34a.182.182 0 0 1-.109.103l-.388.354a.182.182 0 0 1-.109.103l-.342.31a.14.14 0 0 1-.093.089zm7.81-6.276c.476-.002.952 0 1.428.007.089.008.112.05.07.126a727.794 727.794 0 0 1-5.993 7.723c-.103.132-.211.26-.326.384l-2.197-1.824.171-.192 6.692-6.158a.988.988 0 0 1 .155-.066zm2.779 0c.9-.002 1.801 0 2.702.007l.202.022c.034 1.718.037 3.436.008 5.154-.018.072-.049.077-.093.015a510.892 510.892 0 0 1-2.911-5.131.492.492 0 0 1 .093-.066zm3.742 0c.859-.002 1.718 0 2.577.007l.093.015.031.059a2396.08 2396.08 0 0 1-2.756 4.866.435.435 0 0 1-.14.133 400.66 400.66 0 0 1 0-4.903 6.55 6.55 0 0 1 .023-.148.601.601 0 0 0 .171-.03zm4.145 0c.44-.002.88 0 1.32.007a.479.479 0 0 1 .248.118 1803.11 1803.11 0 0 0 6.443 5.936c.112.101.218.207.318.317.005.021 0 .04-.015.059l-2.057 1.72c-.076.038-.136.021-.179-.052l-6.18-8.004a.267.267 0 0 1-.008-.089.208.208 0 0 0 .109-.015zm-.807.281a.605.605 0 0 1 .101.059 3778.79 3778.79 0 0 0 6.257 8.077.893.893 0 0 1 .116.192 9.471 9.471 0 0 1-.59.524 727.723 727.723 0 0 1-4.285 3.559c-.206.172-.419.337-.637.495a1.656 1.656 0 0 1-.225-.295 2116.008 2116.008 0 0 0-4.247-6.468 232.319 232.319 0 0 1 3.509-6.143zm-7.779.103c.041.032.08.066.116.103l3.307 5.789c.116.177.183.369.202.576.01 3.249.01 6.497 0 9.746a3.049 3.049 0 0 1-.023.288.148.148 0 0 1-.093 0L5.1 22.652a.761.761 0 0 1-.171-.192c2.133-2.746 4.26-5.495 6.381-8.247zm4.27 7.251a.313.313 0 0 1 .148.148l3.827 5.826a194.789 194.789 0 0 1-3.851 3.234c-.093.063-.142.041-.148-.067-.01-3.012-.01-6.025 0-9.037.007-.035.014-.069.023-.103z"/>
      <path d="M8.283 13.785a.235.235 0 0 1-.124.118.693.693 0 0 1 .124-.118zM7.802 14.243a.239.239 0 0 1-.109.089.239.239 0 0 1 .109-.089zM7.305 14.686a.182.182 0 0 1-.109.103.508.508 0 0 1 .109-.103zM6.824 15.129a.235.235 0 0 1-.124.118.693.693 0 0 1 .124-.118zM6.343 15.572a.182.182 0 0 1-.109.103.508.508 0 0 1 .109-.103zM5.861 16.029a.31.31 0 0 1-.124.103.31.31 0 0 1 .124-.103zM5.364 16.473a.182.182 0 0 1-.109.103.508.508 0 0 1 .109-.103zM4.883 16.916a.238.238 0 0 1-.124.118.693.693 0 0 1 .124-.118zM4.402 17.373a.239.239 0 0 1-.109.089.233.233 0 0 1 .109-.089zM3.905 17.816a.182.182 0 0 1-.109.103.508.508 0 0 1 .109-.103zM3.424 18.259a.238.238 0 0 1-.124.118.693.693 0 0 1 .124-.118zM2.942 18.702a.182.182 0 0 1-.109.103.508.508 0 0 1 .109-.103zM2.461 19.145a.182.182 0 0 1-.109.103.485.485 0 0 1 .109-.103zM1.964 19.603a.182.182 0 0 1-.109.103.508.508 0 0 1 .109-.103zM1.514 20.017a.14.14 0 0 1-.093.089.414.414 0 0 1 .093-.089zM31.98 2.527c1.372-.013 2.745 0 4.117.04a4305.126 4305.126 0 0 0 7.03 16.159c2.326-5.388 4.656-10.774 6.99-16.159 1.358-.04 2.717-.053 4.076-.04v21.174H51.34c.007-5.877 0-11.755-.02-17.632a5066.586 5066.586 0 0 1-7.601 17.592 5.91 5.91 0 0 1-1.182.02c-2.569-5.893-5.13-11.79-7.683-17.692-.02 5.904-.027 11.808-.02 17.711h-2.853V2.526zM82.844 2.567a476.31 476.31 0 0 0-.02 10.826.17.17 0 0 0 .061-.08c3.308-3.582 6.609-7.171 9.904-10.766a53.628 53.628 0 0 1 3.587.02l-9.374 9.99a3928.4 3928.4 0 0 0 10.21 11.025c.028.037.022.064-.02.08l-3.587-.08a2809.98 2809.98 0 0 1-8.498-9.393 90.027 90.027 0 0 0-2.221 2.368c-.964.02-1.929.027-2.894.02V2.527c.958-.013 1.909 0 2.853.04zM99.921 2.527h14.877v2.388h-12.024v4.498h-2.853V2.527z"/>
      <path d="M82.844 2.567c-.013 3.589 0 7.171.041 10.746a.174.174 0 0 1-.061.08c-.034-3.615-.027-7.224.02-10.826zM65.319 2.726c1.196-.013 2.391 0 3.587.04 1.681 3.883 3.365 7.763 5.054 11.642a38.956 38.956 0 0 1-3.057-.02c-1.274-2.97-2.544-5.942-3.811-8.915l-4.748 11.204c4.212.007 8.423.026 12.635.06a808.026 808.026 0 0 1 3.016 6.965 44.887 44.887 0 0 1-3.261.02 333.528 333.528 0 0 1-1.997-4.637 527.256 527.256 0 0 0-11.249-.02 141.196 141.196 0 0 0-1.997 4.677c-1.101.013-2.201 0-3.301-.04a5233.29 5233.29 0 0 0 9.13-20.975zM99.921 11.682h14.632v2.388H99.921v-2.388zM99.921 16.338h2.853v4.975h12.024v2.388H99.921v-7.363zM79.991 18.846h2.853v4.856h-2.853v-4.856zM93.604 23.582c1.201.026 2.396.052 3.587.08-1.182.007-2.364 0-3.546-.02a.09.09 0 0 1-.041-.06zM32.469 26.169a.373.373 0 0 1 .306.08l3.79 5.134c.02-1.738.027-3.476.02-5.214h.245V31.9a.3.3 0 0 1-.265-.08l-3.831-5.174c-.02 1.751-.027 3.503-.02 5.254h-.245v-5.731zM39.886 26.169a1404.35 1404.35 0 0 1-2.446 5.672.43.43 0 0 0 .306-.02c.285-.644.55-1.294.795-1.95.951-.007 1.902 0 2.853.02.286.64.565 1.283.836 1.93.098.044.2.05.306.02a347.804 347.804 0 0 1-2.405-5.672h-.245zm.082.398a52.764 52.764 0 0 1 1.304 3.065c-.87.007-1.739 0-2.608-.02a97.06 97.06 0 0 0 1.304-3.045zM43.147 26.169h.245V31.9h-.245v-5.731zM44.003 26.169h.245v5.493h2.731v.239h-2.975V26.17zM48.894 26.169c.41-.015.817.005 1.223.06.356.096.628.295.815.597a.608.608 0 0 1-.163.139 1.454 1.454 0 0 0-.856-.537 3.728 3.728 0 0 0-1.264.08c-.676.333-.914.857-.713 1.572.179.373.471.619.876.736.351.047.704.073 1.06.08.843.172 1.291.677 1.345 1.512-.042.731-.423 1.209-1.141 1.433-.435.078-.87.078-1.304 0a1.306 1.306 0 0 1-.774-.517.215.215 0 0 1 .163-.139c.525.47 1.136.609 1.834.418.839-.293 1.132-.857.876-1.692a1.397 1.397 0 0 0-.999-.776l-.937-.04c-.988-.226-1.416-.829-1.284-1.811.202-.602.617-.974 1.243-1.114zM60.51 26.169V31.9c.802.007 1.603 0 2.405-.02a1.753 1.753 0 0 0 1.121-.617c.566-1.041.315-1.837-.754-2.388.369-.208.607-.513.713-.915.141-.923-.246-1.513-1.161-1.771a66.634 66.634 0 0 0-2.323-.02zm.244.239c.652-.007 1.304 0 1.956.02.666.133 1.033.531 1.1 1.194-.078.607-.418.992-1.019 1.154a51.27 51.27 0 0 1-2.038.02v-2.388zm0 2.627c.707-.007 1.413 0 2.119.02.727.146 1.134.577 1.223 1.294-.084.699-.477 1.13-1.182 1.294-.72.02-1.44.027-2.16.02v-2.627zM64.952 26.169h3.464v.239h-3.22v2.468h2.445v.239h-2.445v2.547h3.22v.239h-3.464V26.17zM71.31 26.169a515.516 515.516 0 0 0-2.405 5.692.508.508 0 0 0 .265-.04c.273-.646.552-1.29.835-1.93a34.362 34.362 0 0 1 2.853.02l.815 1.91a.362.362 0 0 0 .285.02 990.02 990.02 0 0 1-2.344-5.512c-.055-.131-.157-.184-.306-.159zm.082.398c.452 1.01.9 2.024 1.345 3.045-.869.02-1.739.027-2.608.02.413-1.024.834-2.046 1.263-3.065zM74.407 26.169h.285a76.533 76.533 0 0 0 .061 4.259c.338.779.942 1.19 1.814 1.234.965-.056 1.583-.533 1.855-1.433.02-1.353.027-2.706.02-4.06h.245c.007 1.38 0 2.76-.02 4.139-.311 1.012-1.01 1.542-2.099 1.592-.945-.02-1.618-.445-2.017-1.274a2.128 2.128 0 0 1-.122-.637c-.02-1.273-.027-2.547-.02-3.821zM79.135 26.169h4.035v.239h-1.875v5.493h-.245v-5.493h-1.916v-.239zM83.659 26.169a.658.658 0 0 1 .306.04 133.31 133.31 0 0 0 1.752 2.587l1.712-2.547a.305.305 0 0 1 .347-.04c-.638.961-1.283 1.916-1.936 2.866-.02.929-.027 1.857-.02 2.786h-.245c.007-.942 0-1.884-.02-2.826a168.778 168.778 0 0 1-1.895-2.866zM92.177 26.169c.426-.022.848.011 1.263.099.293.127.538.313.734.557a.42.42 0 0 1-.204.139 1.557 1.557 0 0 0-.734-.497 3.919 3.919 0 0 0-1.06-.04c-.94.241-1.273.819-.999 1.731.227.373.56.605.999.697a2.661 2.661 0 0 1 1.671.358c.592.531.735 1.161.428 1.891-.264.43-.652.689-1.162.776-.396.034-.79.021-1.182-.04a1.454 1.454 0 0 1-.734-.517.608.608 0 0 1 .163-.139c.216.244.488.397.815.458a2.201 2.201 0 0 0 1.549-.279c.526-.528.587-1.105.183-1.731a1.527 1.527 0 0 0-.876-.497l-.937-.04c-.928-.243-1.343-.834-1.243-1.771.198-.656.639-1.041 1.325-1.154zM94.623 26.169h4.035v.239h-1.875v5.493h-.245v-5.493h-1.916v-.239zM99.147 26.169h.245c-.007 1.367 0 2.733.02 4.099.293.87.911 1.334 1.854 1.393.944-.059 1.563-.523 1.855-1.393.02-1.366.027-2.733.02-4.099h.285c.007 1.274 0 2.547-.02 3.821-.087.921-.583 1.525-1.488 1.811-1.159.269-2.035-.096-2.628-1.095a3.263 3.263 0 0 1-.122-.398 211.51 211.51 0 0 1-.02-4.139zM104.038 26.169V31.9c.747.007 1.494 0 2.241-.02a2.475 2.475 0 0 0 1.692-.895c.766-1.078.875-2.219.326-3.423-.399-.762-1.031-1.219-1.895-1.373-.788-.02-1.576-.027-2.364-.02zm.244.239c.693-.007 1.386 0 2.079.02 1.005.252 1.65.869 1.936 1.851.288 1.304-.112 2.346-1.202 3.124a2.084 2.084 0 0 1-.734.239c-.693.02-1.386.027-2.079.02v-5.254zM109.255 26.169h.244V31.9h-.244v-5.731zM115.98 28.716a3.728 3.728 0 0 0-.428-1.194c-.923-1.252-2.139-1.63-3.648-1.134-1.355.662-1.932 1.73-1.732 3.204.39 1.441 1.348 2.211 2.873 2.308 1.634-.136 2.612-.985 2.935-2.547v-.637zm-3.057-2.308c1.681.116 2.619.992 2.812 2.627-.176 1.579-1.073 2.454-2.69 2.627-1.616-.172-2.513-1.048-2.69-2.627.165-1.528 1.021-2.403 2.568-2.627zM56.026 31.98c.519-.061.933-.3 1.243-.716.207.19.417.376.632.557.088-.066.169-.139.245-.219a8.506 8.506 0 0 0-.693-.716c.204-.407.313-.838.326-1.294h-.367c-.005.372-.079.73-.224 1.075a53.792 53.792 0 0 0-1.243-1.194c.297-.177.549-.403.754-.677.188-.753-.118-1.178-.917-1.274-.727.04-1.047.412-.958 1.114.128.296.311.554.55.776a2.463 2.463 0 0 0-.754.736c-.297.988.063 1.599 1.08 1.831h.326zm-.489-4.099c.675-.078.94.201.795.836a1.996 1.996 0 0 1-.632.517 6.972 6.972 0 0 1-.428-.478c-.186-.376-.098-.668.265-.876zm.041 1.751c.475.437.937.888 1.386 1.353-.434.643-1.004.796-1.712.458-.468-.416-.516-.874-.143-1.373.152-.155.308-.301.469-.438z"/>
    </symbol>
    <symbol id="icon-logo-footer-org" viewBox="0 0 22 32">
      <path fill="#eeb529" style="fill:var(--color1, #eeb529)" opacity=".987" d="M9.204-.005a.83.83 0 0 1-.096.032c-.465 2.839-.918 5.68-1.361 8.523l.021.09c1.779.002 3.559 0 5.339-.005a.07.07 0 0 0 .053-.032.265.265 0 0 0 .005-.122c-.442-2.808-.889-5.616-1.34-8.422a.091.091 0 0 0-.069-.064H9.204zm.319.425c.624-.002 1.248 0 1.872.005.021.003.04.008.058.016.024.106.045.212.064.319.176 1.121.355 2.241.537 3.36a.284.284 0 0 1-.128.037l-.861.011a.649.649 0 0 0 0 .404c.333.013.666.02 1 .021.024.001.043.01.059.027.198 1.189.385 2.378.558 3.568a.48.48 0 0 1-.074.021c-1.439.007-2.878.007-4.318 0a.122.122 0 0 1-.037-.016.324.324 0 0 0-.016-.053c.188-1.166.374-2.332.558-3.499a.147.147 0 0 1 .069-.048l1.702-.011.117-.011a.226.226 0 0 0 .016-.058c.01-.107.006-.213-.011-.319a.372.372 0 0 0-.048-.027l-1.67-.011a.088.088 0 0 1-.08-.048c.179-1.181.364-2.361.553-3.541A.534.534 0 0 1 9.475.45a.286.286 0 0 0 .048-.032z"/>
      <path fill="#eeb529" style="fill:var(--color1, #eeb529)" opacity=".992" d="M.973 14.479a.156.156 0 0 0-.037.117c.111.122.227.241.346.356 3.023 2.63 6.039 5.267 9.05 7.912a.269.269 0 0 0 .117.058c3.075-2.679 6.148-5.361 9.22-8.045.091-.084.174-.174.25-.271.023-.047.016-.09-.021-.128a1629.661 1629.661 0 0 1-5.004-4.844.382.382 0 0 0-.128-.085 887.624 887.624 0 0 0-8.635-.011.214.214 0 0 0-.085.032c-.126.117-.25.236-.372.356a.168.168 0 0 1-.085.085c-.085.078-.167.16-.245.245a.17.17 0 0 1-.074.064l-.266.255a.128.128 0 0 1-.074.074l-.255.245a.168.168 0 0 1-.085.085l-.245.234a.128.128 0 0 1-.074.074 4.38 4.38 0 0 0-.255.255.21.21 0 0 1-.085.074l-.255.245a.128.128 0 0 1-.074.074l-.255.245a.168.168 0 0 1-.085.085c-.085.078-.167.16-.245.245a.164.164 0 0 1-.074.064l-.266.255a.128.128 0 0 1-.074.074l-.255.245a.168.168 0 0 1-.085.085l-.245.234a.128.128 0 0 1-.074.074l-.255.245a.128.128 0 0 1-.074.074l-.266.255a.128.128 0 0 1-.074.074l-.234.223a.098.098 0 0 1-.064.064zm5.349-4.52c.326-.002.652 0 .978.005.061.006.077.036.048.09a517.117 517.117 0 0 1-4.105 5.562c-.07.095-.145.187-.223.277L1.515 14.58l.117-.138 4.583-4.434a.827.827 0 0 1 .106-.048zm1.904 0c.617-.002 1.234 0 1.85.005l.138.016c.023 1.237.025 2.474.005 3.711-.012.052-.034.056-.064.011a375.612 375.612 0 0 1-1.994-3.695.324.324 0 0 1 .064-.048zm2.563 0c.588-.002 1.177 0 1.765.005l.064.011.021.043a1499.66 1499.66 0 0 1-1.888 3.504.314.314 0 0 1-.096.096 296.859 296.859 0 0 1 0-3.531l.016-.106a.448.448 0 0 0 .117-.021zm2.839 0c.301-.002.603 0 .904.005a.32.32 0 0 1 .17.085 1268.4 1268.4 0 0 0 4.413 4.275c.077.073.149.149.218.229a.05.05 0 0 1-.011.043l-1.409 1.239c-.052.028-.093.015-.122-.037l-4.233-5.764c-.005-.021-.007-.042-.005-.064a.13.13 0 0 0 .074-.011zm-.553.202a.417.417 0 0 1 .069.043c1.426 1.941 2.855 3.88 4.286 5.817a.68.68 0 0 1 .08.138c-.13.131-.264.257-.404.378a507.51 507.51 0 0 1-2.935 2.563 7.78 7.78 0 0 1-.436.356 1.204 1.204 0 0 1-.154-.213c-.967-1.554-1.936-3.107-2.909-4.658.78-1.488 1.581-2.963 2.403-4.424zm-5.328.074a.935.935 0 0 1 .08.074l2.265 4.169c.08.127.126.265.138.415.007 2.339.007 4.679 0 7.019-.002.07-.007.139-.016.207a.1.1 0 0 1-.064 0l-6.657-5.806a.55.55 0 0 1-.117-.138c1.461-1.977 2.918-3.957 4.371-5.939zm2.925 5.222a.221.221 0 0 1 .101.106l2.621 4.195a137.98 137.98 0 0 1-2.637 2.329c-.063.045-.097.029-.101-.048-.007-2.169-.007-4.339 0-6.508l.016-.074z"/>
      <path fill="#eeb22a" style="fill:var(--color2, #eeb22a)" opacity=".816" d="M5.673 9.927a.168.168 0 0 1-.085.085.488.488 0 0 1 .085-.085z"/>
      <path fill="#eeb32a" style="fill:var(--color3, #eeb32a)" opacity=".816" d="M5.344 10.257a.17.17 0 0 1-.074.064.17.17 0 0 1 .074-.064z"/>
      <path fill="#eeb22a" style="fill:var(--color2, #eeb22a)" opacity=".816" d="M5.004 10.576a.128.128 0 0 1-.074.074.37.37 0 0 1 .074-.074zM4.674 10.895a.168.168 0 0 1-.085.085.488.488 0 0 1 .085-.085zM4.344 11.214a.128.128 0 0 1-.074.074.37.37 0 0 1 .074-.074z"/>
      <path fill="#eeb32a" style="fill:var(--color3, #eeb32a)" opacity=".816" d="M4.015 11.543a.21.21 0 0 1-.085.074.21.21 0 0 1 .085-.074z"/>
      <path fill="#eeb22a" style="fill:var(--color2, #eeb22a)" opacity=".816" d="M3.674 11.863a.128.128 0 0 1-.074.074.37.37 0 0 1 .074-.074zM3.345 12.182a.168.168 0 0 1-.085.085.488.488 0 0 1 .085-.085z"/>
      <path fill="#eeb32a" style="fill:var(--color3, #eeb32a)" opacity=".816" d="M3.015 12.511a.164.164 0 0 1-.074.064.164.164 0 0 1 .074-.064z"/>
      <path fill="#eeb22a" style="fill:var(--color2, #eeb22a)" opacity=".816" d="M2.675 12.83a.128.128 0 0 1-.074.074.37.37 0 0 1 .074-.074zM2.345 13.149a.168.168 0 0 1-.085.085.488.488 0 0 1 .085-.085zM2.015 13.468a.128.128 0 0 1-.074.074.37.37 0 0 1 .074-.074zM1.686 13.787a.128.128 0 0 1-.074.074.37.37 0 0 1 .074-.074zM1.345 14.117a.128.128 0 0 1-.074.074.37.37 0 0 1 .074-.074z"/>
      <path fill="#eeb22b" style="fill:var(--color4, #eeb22b)" opacity=".816" d="M1.037 14.415a.098.098 0 0 1-.064.064.278.278 0 0 1 .064-.064z"/>
      <path style="fill:var(--color5, #000)" opacity=".987" d="M-.005 23.908c.358-.004.716 0 1.074.011.609 1.441 1.22 2.881 1.834 4.319.607-1.44 1.215-2.88 1.824-4.319.354-.011.709-.014 1.064-.011v5.659h-.744c.002-1.571 0-3.142-.005-4.712-.658 1.568-1.319 3.136-1.983 4.702a1.51 1.51 0 0 1-.308.005c-.67-1.575-1.338-3.151-2.005-4.728-.005 1.578-.007 3.156-.005 4.734h-.744v-5.659z"/>
      <path fill="#eeb529" style="fill:var(--color1, #eeb529)" opacity=".995" d="M13.267 23.919a132.82 132.82 0 0 0-.005 2.893.046.046 0 0 0 .016-.021c.863-.957 1.725-1.916 2.584-2.877.312-.009.624-.007.936.005l-2.446 2.67c.886.984 1.774 1.966 2.664 2.947.007.01.006.017-.005.021l-.936-.021c-.741-.835-1.48-1.672-2.217-2.51-.197.208-.39.419-.58.633-.252.005-.503.007-.755.005v-3.755c.25-.003.498 0 .744.011z"/>
      <path style="fill:var(--color5, #000)" opacity=".992" d="M17.722 23.908h3.882v.638h-3.137v1.202h-.744v-1.84z"/>
      <path fill="#edb42a" style="fill:var(--color6, #edb42a)" opacity=".502" d="M13.267 23.919c-.004.959 0 1.916.011 2.872a.046.046 0 0 1-.016.021 132.81 132.81 0 0 1 .005-2.893z"/>
      <path fill="#eeb529" style="fill:var(--color1, #eeb529)" opacity=".991" d="M8.694 23.962c.312-.004.624 0 .936.011.439 1.038.878 2.075 1.319 3.111-.266.009-.532.007-.798-.005-.332-.794-.664-1.588-.994-2.383L7.918 27.69c1.099.002 2.198.007 3.297.016.265.619.528 1.24.787 1.862a11.5 11.5 0 0 1-.851.005c-.177-.412-.35-.825-.521-1.239-.978-.012-1.957-.014-2.935-.005-.181.414-.355.83-.521 1.25-.287.004-.574 0-.861-.011.798-1.867 1.592-3.736 2.382-5.606z"/>
      <path style="fill:var(--color5, #000)" opacity=".991" d="M17.722 26.355h3.818v.638h-3.818v-.638z"/>
      <path style="fill:var(--color5, #000)" opacity=".988" d="M17.722 27.599h.744v1.33h3.137v.638h-3.882v-1.968z"/>
      <path fill="#edb529" style="fill:var(--color7, #edb529)" opacity=".988" d="M12.522 28.27h.744v1.298h-.744V28.27z"/>
      <path fill="#edb42a" style="fill:var(--color6, #edb42a)" opacity=".502" d="m16.074 29.535.936.021c-.308.002-.617 0-.925-.005a.026.026 0 0 1-.011-.016z"/>
      <path style="fill:var(--color5, #000)" opacity=".858" d="M.122 30.227a.096.096 0 0 1 .08.021l.989 1.372c.005-.464.007-.929.005-1.393h.064v1.532a.079.079 0 0 1-.069-.021l-1-1.383a93.87 93.87 0 0 0-.005 1.404H.122v-1.532z"/>
      <path style="fill:var(--color5, #000)" opacity=".854" d="M2.058 30.227c-.212.506-.424 1.011-.638 1.516a.116.116 0 0 0 .08-.005c.074-.172.144-.346.207-.521.248-.002.496 0 .744.005.075.171.147.343.218.516a.106.106 0 0 0 .08.005 86.369 86.369 0 0 1-.627-1.516h-.064zm.021.106c.122.269.235.542.34.819-.227.002-.454 0-.681-.005.118-.269.231-.541.34-.814z"/>
      <path style="fill:var(--color5, #000)" opacity=".868" d="M2.909 30.227h.064v1.532h-.064v-1.532z"/>
      <path style="fill:var(--color5, #000)" opacity=".871" d="M3.132 30.227h.064v1.468h.713v.064h-.776v-1.532z"/>
      <path style="fill:var(--color5, #000)" opacity=".845" d="M4.408 30.227a1.79 1.79 0 0 1 .319.016.35.35 0 0 1 .213.16.153.153 0 0 1-.043.037.383.383 0 0 0-.223-.144.963.963 0 0 0-.33.021c-.177.089-.239.229-.186.42.047.1.123.165.229.197.092.012.184.02.276.021.22.046.337.181.351.404a.394.394 0 0 1-.298.383.925.925 0 0 1-.34 0 .338.338 0 0 1-.202-.138.055.055 0 0 1 .043-.037.475.475 0 0 0 .479.112c.219-.078.295-.229.229-.452a.366.366 0 0 0-.261-.207l-.245-.011c-.258-.06-.37-.222-.335-.484a.422.422 0 0 1 .324-.298z"/>
      <path style="fill:var(--color5, #000)" opacity=".867" d="M7.439 30.227v1.532c.209.002.418 0 .627-.005a.454.454 0 0 0 .292-.165c.148-.278.082-.491-.197-.638a.384.384 0 0 0 .186-.245c.037-.247-.064-.404-.303-.473a17.49 17.49 0 0 0-.606-.005zm.064.064c.17-.002.34 0 .51.005.174.035.269.142.287.319a.338.338 0 0 1-.266.308c-.177.005-.354.007-.532.005v-.638zm0 .702c.184-.002.369 0 .553.005.19.039.296.154.319.346a.373.373 0 0 1-.308.346c-.188.005-.376.007-.564.005v-.702z"/>
      <path style="fill:var(--color5, #000)" opacity=".875" d="M8.598 30.227h.904v.064h-.84v.66H9.3v.064h-.638v.681h.84v.064h-.904v-1.532z"/>
      <path style="fill:var(--color5, #000)" opacity=".854" d="M10.257 30.227c-.212.506-.421 1.013-.627 1.521a.126.126 0 0 0 .069-.011c.071-.173.144-.345.218-.516a8.79 8.79 0 0 1 .744.005l.213.511a.091.091 0 0 0 .074.005c-.205-.49-.409-.981-.611-1.473-.014-.035-.041-.049-.08-.043zm.021.106c.118.27.235.541.351.814-.227.005-.454.007-.681.005.108-.274.218-.547.33-.819z"/>
      <path style="fill:var(--color5, #000)" opacity=".834" d="M11.065 30.227h.074c-.005.38 0 .759.016 1.138a.506.506 0 0 0 .473.33.494.494 0 0 0 .484-.383c.005-.362.007-.723.005-1.085h.064c.002.369 0 .738-.005 1.106-.081.27-.264.412-.548.425a.553.553 0 0 1-.526-.34.581.581 0 0 1-.032-.17c-.005-.34-.007-.681-.005-1.021z"/>
      <path style="fill:var(--color5, #000)" opacity=".872" d="M12.299 30.227h1.053v.064h-.489v1.468h-.064v-1.468h-.5v-.064z"/>
      <path style="fill:var(--color5, #000)" opacity=".848" d="M13.479 30.227a.168.168 0 0 1 .08.011c.15.232.302.463.457.691l.447-.681c.027-.023.057-.026.09-.011-.166.257-.335.512-.505.766-.005.248-.007.496-.005.745h-.064c.002-.252 0-.504-.005-.755a41.584 41.584 0 0 1-.495-.766z"/>
      <path style="fill:var(--color5, #000)" opacity=".846" d="M15.702 30.227c.111-.006.221.003.33.027.076.034.14.084.191.149a.11.11 0 0 1-.053.037.403.403 0 0 0-.191-.133 1.027 1.027 0 0 0-.277-.011c-.245.065-.332.219-.261.463a.38.38 0 0 0 .261.186.679.679 0 0 1 .436.096c.155.142.192.31.112.505a.422.422 0 0 1-.303.207 1.222 1.222 0 0 1-.308-.011.375.375 0 0 1-.191-.138.153.153 0 0 1 .043-.037.36.36 0 0 0 .213.122c.145.026.28.001.404-.074.137-.141.153-.295.048-.463a.398.398 0 0 0-.229-.133l-.245-.011c-.242-.065-.35-.223-.324-.473a.407.407 0 0 1 .346-.308z"/>
      <path style="fill:var(--color5, #000)" opacity=".872" d="M16.34 30.227h1.053v.064h-.489v1.468h-.064v-1.468h-.5v-.064z"/>
      <path style="fill:var(--color5, #000)" opacity=".835" d="M17.52 30.227h.064c-.002.365 0 .73.005 1.096a.501.501 0 0 0 .484.372.503.503 0 0 0 .484-.372c.005-.365.007-.73.005-1.096h.074c.002.34 0 .681-.005 1.021a.522.522 0 0 1-.388.484c-.303.072-.531-.026-.686-.293a.993.993 0 0 1-.032-.106c-.005-.369-.007-.738-.005-1.106z"/>
      <path style="fill:var(--color5, #000)" opacity=".86" d="M18.797 30.227v1.532c.195.002.39 0 .585-.005.18-.02.327-.1.441-.239a.881.881 0 0 0 .085-.915.66.66 0 0 0-.494-.367c-.206-.005-.411-.007-.617-.005zm.063.064c.181-.002.362 0 .542.005a.665.665 0 0 1 .505.495c.075.349-.029.627-.314.835a.546.546 0 0 1-.191.064 14.01 14.01 0 0 1-.542.005v-1.404z"/>
      <path style="fill:var(--color5, #000)" opacity=".868" d="M20.158 30.227h.064v1.532h-.064v-1.532z"/>
      <path style="fill:var(--color5, #000)" opacity=".85" d="M21.913 30.908a1.004 1.004 0 0 0-.112-.319c-.241-.335-.558-.436-.952-.303-.354.177-.504.462-.452.856.102.385.352.591.75.617.426-.036.681-.263.766-.681v-.17zm-.798-.617c.439.031.683.265.734.702-.046.422-.28.656-.702.702-.422-.046-.656-.28-.702-.702.043-.408.266-.642.67-.702z"/>
      <path style="fill:var(--color5, #000)" opacity=".889" d="M6.269 31.78a.452.452 0 0 0 .324-.191c.054.051.109.101.165.149a.509.509 0 0 0 .064-.059 2.175 2.175 0 0 0-.181-.191.829.829 0 0 0 .085-.346H6.63a.767.767 0 0 1-.059.287 13.908 13.908 0 0 0-.324-.319.68.68 0 0 0 .197-.181c.049-.201-.031-.315-.239-.34-.19.011-.273.11-.25.298a.595.595 0 0 0 .144.207.65.65 0 0 0-.197.197c-.077.264.016.427.282.489h.085zm-.128-1.096c.176-.021.245.054.207.223a.525.525 0 0 1-.165.138 1.972 1.972 0 0 1-.112-.128c-.049-.101-.026-.179.069-.234zm.011.468c.124.117.244.237.362.362-.113.172-.262.213-.447.122-.122-.111-.135-.234-.037-.367.04-.041.08-.08.122-.117z"/>
    </symbol>
    <symbol id="icon-logo-header-org" viewBox="0 0 116 32">
      <path fill="#eeb529" style="fill:var(--color1, #eeb529)" opacity=".987" d="M13.438-.007a1.146 1.146 0 0 1-.14.044c-.678 3.942-1.341 7.887-1.987 11.836.012.042.022.084.031.126 2.598.002 5.196 0 7.794-.007a.11.11 0 0 0 .078-.044.35.35 0 0 0 .008-.17c-.645-3.9-1.298-7.798-1.956-11.695a.131.131 0 0 0-.101-.089h-3.726zm.466.59c.911-.002 1.822 0 2.733.007.03.004.058.011.085.022.035.147.066.295.093.443.256 1.556.518 3.112.784 4.666a.439.439 0 0 1-.186.052l-1.258.015a.87.87 0 0 0 0 .561c.486.018.973.028 1.459.03a.122.122 0 0 1 .085.037c.29 1.651.561 3.302.815 4.954a1.034 1.034 0 0 1-.109.03c-2.101.01-4.203.01-6.304 0a.186.186 0 0 1-.054-.022.396.396 0 0 0-.023-.074c.275-1.619.547-3.238.815-4.858a.218.218 0 0 1 .101-.066l2.484-.015.171-.015a.288.288 0 0 0 .023-.081 1.729 1.729 0 0 0-.015-.443.516.516 0 0 0-.07-.037l-2.438-.015a.133.133 0 0 1-.117-.066c.262-1.639.531-3.279.807-4.917a.7.7 0 0 1 .047-.162.439.439 0 0 0 .07-.044z"/>
      <path fill="#eeb529" style="fill:var(--color1, #eeb529)" opacity=".992" d="M1.421 20.105a.204.204 0 0 0-.054.162c.163.169.331.334.505.495a3643.47 3643.47 0 0 1 13.213 10.987.41.41 0 0 0 .171.081c4.489-3.721 8.976-7.444 13.461-11.171.133-.117.255-.242.365-.377.034-.065.024-.125-.031-.177-2.44-2.237-4.875-4.479-7.305-6.726a.583.583 0 0 0-.186-.118c-4.202-.025-8.404-.03-12.607-.015a.335.335 0 0 0-.124.044c-.184.163-.365.328-.543.495a.235.235 0 0 1-.124.118 5.733 5.733 0 0 0-.357.34.239.239 0 0 1-.109.089l-.388.354a.182.182 0 0 1-.109.103l-.373.34a.235.235 0 0 1-.124.118l-.357.325a.182.182 0 0 1-.109.103 6.238 6.238 0 0 0-.373.354.31.31 0 0 1-.124.103l-.373.34a.182.182 0 0 1-.109.103l-.373.34a.238.238 0 0 1-.124.118 5.454 5.454 0 0 0-.357.34.233.233 0 0 1-.109.089l-.388.354a.182.182 0 0 1-.109.103l-.373.34a.238.238 0 0 1-.124.118l-.357.325a.182.182 0 0 1-.109.103l-.373.34a.182.182 0 0 1-.109.103l-.388.354a.182.182 0 0 1-.109.103l-.342.31a.14.14 0 0 1-.093.089zm7.81-6.276c.476-.002.952 0 1.428.007.089.008.112.05.07.126a727.794 727.794 0 0 1-5.993 7.723c-.103.132-.211.26-.326.384l-2.197-1.824.171-.192 6.692-6.158a.988.988 0 0 1 .155-.066zm2.779 0c.9-.002 1.801 0 2.702.007l.202.022c.034 1.718.037 3.436.008 5.154-.018.072-.049.077-.093.015a510.892 510.892 0 0 1-2.911-5.131.492.492 0 0 1 .093-.066zm3.742 0c.859-.002 1.718 0 2.577.007l.093.015.031.059a2396.08 2396.08 0 0 1-2.756 4.866.435.435 0 0 1-.14.133 400.66 400.66 0 0 1 0-4.903 6.55 6.55 0 0 1 .023-.148.601.601 0 0 0 .171-.03zm4.145 0c.44-.002.88 0 1.32.007a.479.479 0 0 1 .248.118 1803.11 1803.11 0 0 0 6.443 5.936c.112.101.218.207.318.317.005.021 0 .04-.015.059l-2.057 1.72c-.076.038-.136.021-.179-.052l-6.18-8.004a.267.267 0 0 1-.008-.089.208.208 0 0 0 .109-.015zm-.807.281a.605.605 0 0 1 .101.059 3778.79 3778.79 0 0 0 6.257 8.077.893.893 0 0 1 .116.192 9.471 9.471 0 0 1-.59.524 727.723 727.723 0 0 1-4.285 3.559c-.206.172-.419.337-.637.495a1.656 1.656 0 0 1-.225-.295 2116.008 2116.008 0 0 0-4.247-6.468 232.319 232.319 0 0 1 3.509-6.143zm-7.779.103c.041.032.08.066.116.103l3.307 5.789c.116.177.183.369.202.576.01 3.249.01 6.497 0 9.746a3.049 3.049 0 0 1-.023.288.148.148 0 0 1-.093 0L5.1 22.652a.761.761 0 0 1-.171-.192c2.133-2.746 4.26-5.495 6.381-8.247zm4.27 7.251a.313.313 0 0 1 .148.148l3.827 5.826a194.789 194.789 0 0 1-3.851 3.234c-.093.063-.142.041-.148-.067-.01-3.012-.01-6.025 0-9.037.007-.035.014-.069.023-.103z"/>
      <path fill="#eeb22a" style="fill:var(--color2, #eeb22a)" opacity=".816" d="M8.283 13.785a.235.235 0 0 1-.124.118.693.693 0 0 1 .124-.118z"/>
      <path fill="#eeb32a" style="fill:var(--color3, #eeb32a)" opacity=".816" d="M7.802 14.243a.239.239 0 0 1-.109.089.239.239 0 0 1 .109-.089z"/>
      <path fill="#eeb22a" style="fill:var(--color2, #eeb22a)" opacity=".816" d="M7.305 14.686a.182.182 0 0 1-.109.103.508.508 0 0 1 .109-.103zM6.824 15.129a.235.235 0 0 1-.124.118.693.693 0 0 1 .124-.118zM6.343 15.572a.182.182 0 0 1-.109.103.508.508 0 0 1 .109-.103z"/>
      <path fill="#eeb32a" style="fill:var(--color3, #eeb32a)" opacity=".816" d="M5.861 16.029a.31.31 0 0 1-.124.103.31.31 0 0 1 .124-.103z"/>
      <path fill="#eeb22a" style="fill:var(--color2, #eeb22a)" opacity=".816" d="M5.364 16.473a.182.182 0 0 1-.109.103.508.508 0 0 1 .109-.103zM4.883 16.916a.238.238 0 0 1-.124.118.693.693 0 0 1 .124-.118z"/>
      <path fill="#eeb32a" style="fill:var(--color3, #eeb32a)" opacity=".816" d="M4.402 17.373a.239.239 0 0 1-.109.089.233.233 0 0 1 .109-.089z"/>
      <path fill="#eeb22a" style="fill:var(--color2, #eeb22a)" opacity=".816" d="M3.905 17.816a.182.182 0 0 1-.109.103.508.508 0 0 1 .109-.103zM3.424 18.259a.238.238 0 0 1-.124.118.693.693 0 0 1 .124-.118zM2.942 18.702a.182.182 0 0 1-.109.103.508.508 0 0 1 .109-.103zM2.461 19.145a.182.182 0 0 1-.109.103.485.485 0 0 1 .109-.103zM1.964 19.603a.182.182 0 0 1-.109.103.508.508 0 0 1 .109-.103z"/>
      <path fill="#eeb22b" style="fill:var(--color4, #eeb22b)" opacity=".816" d="M1.514 20.017a.14.14 0 0 1-.093.089.414.414 0 0 1 .093-.089z"/>
      <path style="fill:var(--color5, #000)" opacity=".987" d="M31.98 2.527c1.372-.013 2.745 0 4.117.04a4305.126 4305.126 0 0 0 7.03 16.159c2.326-5.388 4.656-10.774 6.99-16.159 1.358-.04 2.717-.053 4.076-.04v21.174H51.34c.007-5.877 0-11.755-.02-17.632a5066.586 5066.586 0 0 1-7.601 17.592 5.91 5.91 0 0 1-1.182.02c-2.569-5.893-5.13-11.79-7.683-17.692-.02 5.904-.027 11.808-.02 17.711h-2.853V2.526z"/>
      <path fill="#eeb529" style="fill:var(--color1, #eeb529)" opacity=".995" d="M82.844 2.567a476.31 476.31 0 0 0-.02 10.826.17.17 0 0 0 .061-.08c3.308-3.582 6.609-7.171 9.904-10.766a53.628 53.628 0 0 1 3.587.02l-9.374 9.99a3928.4 3928.4 0 0 0 10.21 11.025c.028.037.022.064-.02.08l-3.587-.08a2809.98 2809.98 0 0 1-8.498-9.393 90.027 90.027 0 0 0-2.221 2.368c-.964.02-1.929.027-2.894.02V2.527c.958-.013 1.909 0 2.853.04z"/>
      <path style="fill:var(--color5, #000)" opacity=".992" d="M99.921 2.527h14.877v2.388h-12.024v4.498h-2.853V2.527z"/>
      <path fill="#edb42a" style="fill:var(--color6, #edb42a)" opacity=".502" d="M82.844 2.567c-.013 3.589 0 7.171.041 10.746a.174.174 0 0 1-.061.08c-.034-3.615-.027-7.224.02-10.826z"/>
      <path fill="#eeb529" style="fill:var(--color1, #eeb529)" opacity=".991" d="M65.319 2.726c1.196-.013 2.391 0 3.587.04 1.681 3.883 3.365 7.763 5.054 11.642a38.956 38.956 0 0 1-3.057-.02c-1.274-2.97-2.544-5.942-3.811-8.915l-4.748 11.204c4.212.007 8.423.026 12.635.06a808.026 808.026 0 0 1 3.016 6.965 44.887 44.887 0 0 1-3.261.02 333.528 333.528 0 0 1-1.997-4.637 527.256 527.256 0 0 0-11.249-.02 141.196 141.196 0 0 0-1.997 4.677c-1.101.013-2.201 0-3.301-.04a5233.29 5233.29 0 0 0 9.13-20.975z"/>
      <path style="fill:var(--color5, #000)" opacity=".991" d="M99.921 11.682h14.632v2.388H99.921v-2.388z"/>
      <path style="fill:var(--color5, #000)" opacity=".988" d="M99.921 16.338h2.853v4.975h12.024v2.388H99.921v-7.363z"/>
      <path fill="#edb529" style="fill:var(--color7, #edb529)" opacity=".988" d="M79.991 18.846h2.853v4.856h-2.853v-4.856z"/>
      <path fill="#edb42a" style="fill:var(--color6, #edb42a)" opacity=".502" d="M93.604 23.582c1.201.026 2.396.052 3.587.08-1.182.007-2.364 0-3.546-.02a.09.09 0 0 1-.041-.06z"/>
      <path style="fill:var(--color5, #000)" opacity=".858" d="M32.469 26.169a.373.373 0 0 1 .306.08l3.79 5.134c.02-1.738.027-3.476.02-5.214h.245V31.9a.3.3 0 0 1-.265-.08l-3.831-5.174c-.02 1.751-.027 3.503-.02 5.254h-.245v-5.731z"/>
      <path style="fill:var(--color5, #000)" opacity=".854" d="M39.886 26.169a1404.35 1404.35 0 0 1-2.446 5.672.43.43 0 0 0 .306-.02c.285-.644.55-1.294.795-1.95.951-.007 1.902 0 2.853.02.286.64.565 1.283.836 1.93.098.044.2.05.306.02a347.804 347.804 0 0 1-2.405-5.672h-.245zm.082.398a52.764 52.764 0 0 1 1.304 3.065c-.87.007-1.739 0-2.608-.02a97.06 97.06 0 0 0 1.304-3.045z"/>
      <path style="fill:var(--color5, #000)" opacity=".868" d="M43.147 26.169h.245V31.9h-.245v-5.731z"/>
      <path style="fill:var(--color5, #000)" opacity=".871" d="M44.003 26.169h.245v5.493h2.731v.239h-2.975V26.17z"/>
      <path style="fill:var(--color5, #000)" opacity=".845" d="M48.894 26.169c.41-.015.817.005 1.223.06.356.096.628.295.815.597a.608.608 0 0 1-.163.139 1.454 1.454 0 0 0-.856-.537 3.728 3.728 0 0 0-1.264.08c-.676.333-.914.857-.713 1.572.179.373.471.619.876.736.351.047.704.073 1.06.08.843.172 1.291.677 1.345 1.512-.042.731-.423 1.209-1.141 1.433-.435.078-.87.078-1.304 0a1.306 1.306 0 0 1-.774-.517.215.215 0 0 1 .163-.139c.525.47 1.136.609 1.834.418.839-.293 1.132-.857.876-1.692a1.397 1.397 0 0 0-.999-.776l-.937-.04c-.988-.226-1.416-.829-1.284-1.811.202-.602.617-.974 1.243-1.114z"/>
      <path style="fill:var(--color5, #000)" opacity=".867" d="M60.51 26.169V31.9c.802.007 1.603 0 2.405-.02a1.753 1.753 0 0 0 1.121-.617c.566-1.041.315-1.837-.754-2.388.369-.208.607-.513.713-.915.141-.923-.246-1.513-1.161-1.771a66.634 66.634 0 0 0-2.323-.02zm.244.239c.652-.007 1.304 0 1.956.02.666.133 1.033.531 1.1 1.194-.078.607-.418.992-1.019 1.154a51.27 51.27 0 0 1-2.038.02v-2.388zm0 2.627c.707-.007 1.413 0 2.119.02.727.146 1.134.577 1.223 1.294-.084.699-.477 1.13-1.182 1.294-.72.02-1.44.027-2.16.02v-2.627z"/>
      <path style="fill:var(--color5, #000)" opacity=".875" d="M64.952 26.169h3.464v.239h-3.22v2.468h2.445v.239h-2.445v2.547h3.22v.239h-3.464V26.17z"/>
      <path style="fill:var(--color5, #000)" opacity=".854" d="M71.31 26.169a515.516 515.516 0 0 0-2.405 5.692.508.508 0 0 0 .265-.04c.273-.646.552-1.29.835-1.93a34.362 34.362 0 0 1 2.853.02l.815 1.91a.362.362 0 0 0 .285.02 990.02 990.02 0 0 1-2.344-5.512c-.055-.131-.157-.184-.306-.159zm.082.398c.452 1.01.9 2.024 1.345 3.045-.869.02-1.739.027-2.608.02.413-1.024.834-2.046 1.263-3.065z"/>
      <path style="fill:var(--color5, #000)" opacity=".834" d="M74.407 26.169h.285a76.533 76.533 0 0 0 .061 4.259c.338.779.942 1.19 1.814 1.234.965-.056 1.583-.533 1.855-1.433.02-1.353.027-2.706.02-4.06h.245c.007 1.38 0 2.76-.02 4.139-.311 1.012-1.01 1.542-2.099 1.592-.945-.02-1.618-.445-2.017-1.274a2.128 2.128 0 0 1-.122-.637c-.02-1.273-.027-2.547-.02-3.821z"/>
      <path style="fill:var(--color5, #000)" opacity=".872" d="M79.135 26.169h4.035v.239h-1.875v5.493h-.245v-5.493h-1.916v-.239z"/>
      <path style="fill:var(--color5, #000)" opacity=".848" d="M83.659 26.169a.658.658 0 0 1 .306.04 133.31 133.31 0 0 0 1.752 2.587l1.712-2.547a.305.305 0 0 1 .347-.04c-.638.961-1.283 1.916-1.936 2.866-.02.929-.027 1.857-.02 2.786h-.245c.007-.942 0-1.884-.02-2.826a168.778 168.778 0 0 1-1.895-2.866z"/>
      <path style="fill:var(--color5, #000)" opacity=".846" d="M92.177 26.169c.426-.022.848.011 1.263.099.293.127.538.313.734.557a.42.42 0 0 1-.204.139 1.557 1.557 0 0 0-.734-.497 3.919 3.919 0 0 0-1.06-.04c-.94.241-1.273.819-.999 1.731.227.373.56.605.999.697a2.661 2.661 0 0 1 1.671.358c.592.531.735 1.161.428 1.891-.264.43-.652.689-1.162.776-.396.034-.79.021-1.182-.04a1.454 1.454 0 0 1-.734-.517.608.608 0 0 1 .163-.139c.216.244.488.397.815.458a2.201 2.201 0 0 0 1.549-.279c.526-.528.587-1.105.183-1.731a1.527 1.527 0 0 0-.876-.497l-.937-.04c-.928-.243-1.343-.834-1.243-1.771.198-.656.639-1.041 1.325-1.154z"/>
      <path style="fill:var(--color5, #000)" opacity=".872" d="M94.623 26.169h4.035v.239h-1.875v5.493h-.245v-5.493h-1.916v-.239z"/>
      <path style="fill:var(--color5, #000)" opacity=".835" d="M99.147 26.169h.245c-.007 1.367 0 2.733.02 4.099.293.87.911 1.334 1.854 1.393.944-.059 1.563-.523 1.855-1.393.02-1.366.027-2.733.02-4.099h.285c.007 1.274 0 2.547-.02 3.821-.087.921-.583 1.525-1.488 1.811-1.159.269-2.035-.096-2.628-1.095a3.263 3.263 0 0 1-.122-.398 211.51 211.51 0 0 1-.02-4.139z"/>
      <path style="fill:var(--color5, #000)" opacity=".86" d="M104.038 26.169V31.9c.747.007 1.494 0 2.241-.02a2.475 2.475 0 0 0 1.692-.895c.766-1.078.875-2.219.326-3.423-.399-.762-1.031-1.219-1.895-1.373-.788-.02-1.576-.027-2.364-.02zm.244.239c.693-.007 1.386 0 2.079.02 1.005.252 1.65.869 1.936 1.851.288 1.304-.112 2.346-1.202 3.124a2.084 2.084 0 0 1-.734.239c-.693.02-1.386.027-2.079.02v-5.254z"/>
      <path style="fill:var(--color5, #000)" opacity=".868" d="M109.255 26.169h.244V31.9h-.244v-5.731z"/>
      <path style="fill:var(--color5, #000)" opacity=".85" d="M115.98 28.716a3.728 3.728 0 0 0-.428-1.194c-.923-1.252-2.139-1.63-3.648-1.134-1.355.662-1.932 1.73-1.732 3.204.39 1.441 1.348 2.211 2.873 2.308 1.634-.136 2.612-.985 2.935-2.547v-.637zm-3.057-2.308c1.681.116 2.619.992 2.812 2.627-.176 1.579-1.073 2.454-2.69 2.627-1.616-.172-2.513-1.048-2.69-2.627.165-1.528 1.021-2.403 2.568-2.627z"/>
      <path style="fill:var(--color5, #000)" opacity=".889" d="M56.026 31.98c.519-.061.933-.3 1.243-.716.207.19.417.376.632.557.088-.066.169-.139.245-.219a8.506 8.506 0 0 0-.693-.716c.204-.407.313-.838.326-1.294h-.367c-.005.372-.079.73-.224 1.075a53.792 53.792 0 0 0-1.243-1.194c.297-.177.549-.403.754-.677.188-.753-.118-1.178-.917-1.274-.727.04-1.047.412-.958 1.114.128.296.311.554.55.776a2.463 2.463 0 0 0-.754.736c-.297.988.063 1.599 1.08 1.831h.326zm-.489-4.099c.675-.078.94.201.795.836a1.996 1.996 0 0 1-.632.517 6.972 6.972 0 0 1-.428-.478c-.186-.376-.098-.668.265-.876zm.041 1.751c.475.437.937.888 1.386 1.353-.434.643-1.004.796-1.712.458-.468-.416-.516-.874-.143-1.373.152-.155.308-.301.469-.438z"/>
    </symbol>
  </defs>
</svg>