<svg width="32" height="32" viewBox="0 0 32 32" fill="none" xmlns="http://www.w3.org/2000/svg">
<rect width="32" height="32" rx="16" fill="white"/>
<path opacity="0.981" fill-rule="evenodd" clip-rule="evenodd" d="M14.4458 2C15.5206 2 16.5955 2 17.6703 2C17.7135 2.00966 17.7427 2.03654 17.7576 2.08064C18.3277 5.62769 18.8919 9.17586 19.4504 12.7251C19.4602 12.7773 19.4579 12.8288 19.4437 12.8797C19.4279 12.903 19.4054 12.9165 19.3765 12.92C17.1284 12.9267 14.8802 12.929 12.6321 12.9267C12.6246 12.8885 12.6156 12.8504 12.6052 12.8125C13.1648 9.21878 13.738 5.62804 14.3249 2.04032C14.3674 2.02869 14.4077 2.01525 14.4458 2ZM14.8489 2.5376C15.6371 2.53536 16.4252 2.5376 17.2135 2.54432C17.2394 2.5477 17.2641 2.55442 17.2874 2.56448C17.3177 2.69819 17.3446 2.83259 17.368 2.96768C17.5898 4.38429 17.8159 5.79998 18.0465 7.21473C17.997 7.2428 17.9433 7.25848 17.8852 7.26177C17.5225 7.26625 17.1597 7.27074 16.797 7.27521C16.7432 7.44588 16.7432 7.61612 16.797 7.78594C17.2176 7.80241 17.6387 7.81138 18.0599 7.81282C18.0899 7.81444 18.1144 7.82564 18.1338 7.84642C18.3845 9.34907 18.6196 10.8521 18.8391 12.3555C18.8084 12.3666 18.7771 12.3756 18.7451 12.3824C16.9269 12.3914 15.1086 12.3914 13.2904 12.3824C13.2734 12.3783 13.2577 12.3716 13.2434 12.3623C13.2387 12.3392 13.232 12.3168 13.2232 12.2951C13.4612 10.8218 13.6963 9.34791 13.9286 7.8733C13.9518 7.84484 13.981 7.82468 14.0159 7.81282C14.7324 7.80834 15.449 7.80385 16.1655 7.79938C16.2148 7.7949 16.264 7.79041 16.3133 7.78594C16.3234 7.76263 16.3301 7.73799 16.3335 7.71201C16.3458 7.57662 16.3414 7.44222 16.32 7.30881C16.301 7.29591 16.2808 7.28472 16.2596 7.27521C15.5565 7.27074 14.8534 7.26625 14.1503 7.26177C14.1044 7.2602 14.0709 7.24004 14.0495 7.20129C14.276 5.70923 14.5089 4.21739 14.7481 2.72576C14.7561 2.67501 14.7695 2.62573 14.7884 2.57792C14.8106 2.56583 14.8308 2.55239 14.8489 2.5376Z" fill="#1C1505"/>
<path opacity="0.979" fill-rule="evenodd" clip-rule="evenodd" d="M10.5631 14.0557C14.2003 14.049 17.8367 14.0558 21.4724 14.0759C21.5334 14.1012 21.5871 14.137 21.6336 14.1834C23.703 16.1954 25.7765 18.2024 27.8541 20.2045C27.9016 20.2475 27.9441 20.2946 27.9817 20.3457C28.0001 20.3752 28.0047 20.4065 27.9952 20.4397C27.864 20.6157 27.714 20.7748 27.5451 20.9169C23.7036 24.2579 19.8701 27.6089 16.0446 30.97C15.9789 30.9689 15.9207 30.9466 15.8699 30.9028C12.0664 27.5601 8.25528 24.227 4.43664 20.9034C4.28621 20.7575 4.14067 20.6073 4 20.4532C4.00138 20.3618 4.03945 20.2879 4.1142 20.2314C6.22799 18.1885 8.34179 16.1456 10.4556 14.1028C10.4913 14.0829 10.5271 14.0672 10.5631 14.0557ZM10.8049 14.5933C11.2169 14.5911 11.6289 14.5933 12.0409 14.6C12.1179 14.6076 12.138 14.6457 12.1014 14.7143C10.3883 17.0687 8.65963 19.4117 6.91542 21.7434C6.82647 21.8638 6.73242 21.9802 6.63329 22.0929C5.99959 21.5395 5.36591 20.9863 4.73221 20.433C4.78148 20.3748 4.83073 20.3165 4.88 20.2583C6.81019 18.3901 8.74036 16.522 10.6705 14.6538C10.7151 14.6292 10.7599 14.609 10.8049 14.5933ZM13.2098 14.5933C13.989 14.5911 14.7683 14.5933 15.5475 14.6C15.6059 14.6063 15.6641 14.613 15.7222 14.6202C15.7517 16.1837 15.7539 17.7472 15.7289 19.3108C15.7133 19.3766 15.6865 19.3812 15.6483 19.3242C14.7996 17.7719 13.9599 16.2151 13.1292 14.6538C13.1546 14.6301 13.1814 14.6099 13.2098 14.5933ZM16.4477 14.5933C17.191 14.5911 17.9345 14.5933 18.6779 14.6C18.7048 14.6045 18.7316 14.609 18.7585 14.6135C18.7675 14.6314 18.7764 14.6493 18.7854 14.6672C17.9926 16.1435 17.1977 17.6196 16.4006 19.0957C16.3693 19.1451 16.329 19.1854 16.2797 19.2167C16.2707 17.7293 16.2707 16.242 16.2797 14.7546C16.2859 14.7095 16.2926 14.6647 16.2999 14.6202C16.3521 14.6182 16.4013 14.6093 16.4477 14.5933ZM20.0348 14.5933C20.4156 14.5911 20.7962 14.5933 21.1768 14.6C21.2596 14.6146 21.3312 14.6504 21.3918 14.7076C23.2462 16.5134 25.1047 18.3143 26.9674 20.1105C27.0641 20.2027 27.1559 20.299 27.2428 20.3994C27.2471 20.4184 27.2425 20.4362 27.2293 20.4532C26.6359 20.9751 26.0426 21.4971 25.4492 22.0189C25.3832 22.054 25.3318 22.0384 25.2947 21.9719C23.5123 19.5437 21.7299 17.1156 19.9475 14.6874C19.9408 14.6609 19.9386 14.634 19.9408 14.6068C19.9752 14.6108 20.0065 14.6063 20.0348 14.5933ZM19.3362 14.8487C19.3668 14.8636 19.396 14.8815 19.4235 14.9024C21.2251 17.3554 23.0298 19.8059 24.8379 22.2541C24.8783 22.308 24.9119 22.3662 24.9387 22.4289C24.7749 22.595 24.6047 22.754 24.4281 22.906C23.1961 23.9907 21.9601 25.0704 20.72 26.145C20.5413 26.3016 20.3577 26.4516 20.1692 26.5953C20.0945 26.5133 20.0296 26.4238 19.9744 26.3265C18.7529 24.3619 17.5281 22.3997 16.2999 20.4397C17.2853 18.5588 18.2975 16.6952 19.3362 14.8487ZM12.6052 14.9428C12.6409 14.9717 12.6745 15.0031 12.706 15.0368C13.6599 16.7931 14.6138 18.5491 15.5677 20.3053C15.6682 20.4661 15.7264 20.6408 15.7423 20.8295C15.7513 23.7863 15.7513 26.7431 15.7423 29.6999C15.7398 29.7884 15.7331 29.8757 15.7222 29.962C15.6953 29.971 15.6684 29.971 15.6415 29.962C12.8381 27.5159 10.0346 25.0698 7.23115 22.6237C7.17179 22.5733 7.12254 22.5151 7.08336 22.449C8.92902 19.9501 10.7696 17.448 12.6052 14.9428ZM16.2999 21.5418C16.3575 21.5717 16.4 21.6164 16.4275 21.6762C17.5315 23.4436 18.6353 25.2109 19.7393 26.9783C18.6405 27.9745 17.53 28.9556 16.4073 29.9217C16.3273 29.9791 16.2847 29.9589 16.2797 29.8612C16.2707 27.1194 16.2707 24.3777 16.2797 21.6359C16.2856 21.604 16.2923 21.5727 16.2999 21.5418Z" fill="#1C1505"/>
</svg>
