<svg width="24" height="24" fill="none" xmlns="http://www.w3.org/2000/svg">
  <g clip-path="url(#a)" fill-rule="evenodd" clip-rule="evenodd">
    <path opacity=".987" d="M10.079-.006h2.794c.038.008.063.03.076.067.494 2.923.983 5.847 1.467 8.771a.264.264 0 0 1-.005.128.08.08 0 0 1-.059.033C12.404 9 10.455 9 8.507 9a1.251 1.251 0 0 0-.024-.095c.485-2.96.982-5.92 1.49-8.876.038-.01.073-.021.106-.034Zm.349.443c.683-.001 1.366 0 2.05.006a.248.248 0 0 1 .063.017c.027.11.05.22.07.332.193 1.167.389 2.334.588 3.5a.327.327 0 0 1-.14.038l-.942.011a.651.651 0 0 0 0 .421c.364.014.729.021 1.094.022.026.002.047.011.064.028.217 1.238.421 2.477.611 3.716a.663.663 0 0 1-.081.022c-1.576.007-3.152.007-4.728 0a.136.136 0 0 1-.04-.017.3.3 0 0 0-.018-.055c.206-1.214.41-2.429.611-3.644a.164.164 0 0 1 .076-.05l1.863-.01.128-.012a.218.218 0 0 0 .018-.06c.01-.112.007-.223-.012-.333a.354.354 0 0 0-.052-.028l-1.829-.01a.098.098 0 0 1-.087-.05c.196-1.23.398-2.46.606-3.688a.548.548 0 0 1 .035-.122.342.342 0 0 0 .052-.034Z" fill="#EEB529"/>
    <path opacity=".992" d="M1.065 15.079a.102.102 0 0 0 .07-.067l.257-.232a.137.137 0 0 0 .081-.078l.291-.265a.138.138 0 0 0 .082-.078l.28-.255a.137.137 0 0 0 .08-.077l.269-.244a.177.177 0 0 0 .093-.088l.28-.255a.137.137 0 0 0 .08-.078l.292-.265a.176.176 0 0 0 .081-.067c.086-.089.175-.173.268-.255a.178.178 0 0 0 .093-.088l.28-.255a.138.138 0 0 0 .081-.078l.28-.254a.232.232 0 0 0 .093-.078c.09-.092.182-.18.28-.266a.138.138 0 0 0 .08-.077l.269-.244a.178.178 0 0 0 .093-.088l.28-.255a.138.138 0 0 0 .08-.078l.292-.265a.176.176 0 0 0 .082-.067c.085-.088.174-.173.267-.255a.177.177 0 0 0 .094-.088c.133-.126.27-.25.407-.371a.246.246 0 0 1 .093-.034c3.153-.01 6.305-.007 9.456.012.053.02.1.05.14.088 1.822 1.686 3.649 3.367 5.479 5.045.04.04.048.084.023.133-.083.1-.174.195-.274.282-3.364 2.795-6.73 5.588-10.096 8.379a.316.316 0 0 1-.128-.061c-3.297-2.755-6.6-5.501-9.91-8.24a8.74 8.74 0 0 1-.378-.371.157.157 0 0 1 .04-.122Zm5.858-4.707c.357-.002.714 0 1.071.005.067.007.084.038.053.095a546.914 546.914 0 0 1-4.495 5.792 4.38 4.38 0 0 1-.245.288L1.66 15.184l.128-.144 5.02-4.618a.768.768 0 0 1 .116-.05Zm2.084 0c.676-.002 1.351 0 2.027.005l.15.017c.026 1.288.028 2.577.007 3.865-.014.055-.037.058-.07.011a380.987 380.987 0 0 1-2.184-3.848.396.396 0 0 1 .07-.05Zm2.807 0c.644-.002 1.288 0 1.933.005l.07.012.023.044c-.687 1.216-1.376 2.433-2.067 3.65a.328.328 0 0 1-.105.099 288.883 288.883 0 0 1 0-3.677c.006-.037.011-.074.018-.11a.464.464 0 0 0 .128-.023Zm3.109 0c.33-.002.66 0 .99.005a.363.363 0 0 1 .186.09c1.607 1.487 3.218 2.971 4.833 4.451.083.076.163.156.238.239a.05.05 0 0 1-.011.044l-1.543 1.29c-.058.029-.102.016-.134-.039l-4.635-6.003a.196.196 0 0 1-.006-.066c.03.003.057 0 .082-.011Zm-.606.21a.453.453 0 0 1 .076.045c1.561 2.021 3.126 4.04 4.693 6.058a.686.686 0 0 1 .087.144c-.142.137-.29.268-.442.393-1.068.894-2.14 1.784-3.214 2.67a8.972 8.972 0 0 1-.478.37 1.227 1.227 0 0 1-.169-.221c-1.058-1.62-2.12-3.236-3.184-4.851.854-1.55 1.731-3.086 2.631-4.608Zm-5.834.078c.031.024.06.05.088.077l2.48 4.342a.923.923 0 0 1 .151.432c.008 2.436.008 4.873 0 7.31a2.11 2.11 0 0 1-.017.215.113.113 0 0 1-.07 0c-2.43-2.015-4.86-4.03-7.29-6.047a.574.574 0 0 1-.128-.144c1.6-2.059 3.195-4.12 4.786-6.185Zm3.203 5.438c.05.024.086.061.11.11l2.87 4.37c-.952.82-1.914 1.63-2.887 2.425-.07.047-.107.03-.11-.05-.009-2.259-.009-4.518 0-6.778.004-.026.01-.052.017-.077Z" fill="#EEB529"/>
    <path opacity=".816" d="M6.213 10.339c-.02.04-.05.07-.094.088a.52.52 0 0 1 .094-.088Z" fill="#EEB22A"/>
    <path opacity=".816" d="M5.852 10.682a.176.176 0 0 1-.082.066.175.175 0 0 1 .082-.066Z" fill="#EEB32A"/>
    <path opacity=".816" d="M5.479 11.014a.137.137 0 0 1-.082.078.396.396 0 0 1 .082-.078ZM5.118 11.347c-.02.04-.05.07-.093.088a.513.513 0 0 1 .093-.088ZM4.757 11.679a.138.138 0 0 1-.082.077.396.396 0 0 1 .082-.077Z" fill="#EEB22A"/>
    <path opacity=".816" d="M4.396 12.022a.232.232 0 0 1-.093.078.232.232 0 0 1 .093-.078Z" fill="#EEB32A"/>
    <path opacity=".816" d="M4.023 12.354a.138.138 0 0 1-.081.078.396.396 0 0 1 .081-.078ZM3.662 12.687c-.02.04-.05.07-.093.088a.52.52 0 0 1 .093-.088Z" fill="#EEB22A"/>
    <path opacity=".816" d="M3.301 13.03a.176.176 0 0 1-.081.066.176.176 0 0 1 .081-.066Z" fill="#EEB32A"/>
    <path opacity=".816" d="M2.929 13.362a.138.138 0 0 1-.082.078.396.396 0 0 1 .082-.078ZM2.568 13.694c-.02.041-.05.07-.093.09a.516.516 0 0 1 .093-.09ZM2.207 14.027a.138.138 0 0 1-.082.077.396.396 0 0 1 .082-.077ZM1.846 14.359a.137.137 0 0 1-.082.078.398.398 0 0 1 .082-.078ZM1.473 14.702a.138.138 0 0 1-.081.078.396.396 0 0 1 .081-.078Z" fill="#EEB22A"/>
    <path opacity=".816" d="M1.135 15.012a.103.103 0 0 1-.07.067.291.291 0 0 1 .07-.067Z" fill="#EEB22B"/>
  </g>
  <defs>
    <clipPath id="a">
      <path fill="#fff" d="M0 0h24v24H0z"/>
    </clipPath>
  </defs>
</svg>